<svg width="100" height="100" viewBox="0 0 100 100" fill="none" xmlns="http://www.w3.org/2000/svg">
<g filter="url(#filter0_b_429_6)">
<circle cx="50" cy="50" r="50" fill="url(#paint0_linear_429_6)" fill-opacity="0.2"/>
<circle cx="50" cy="50" r="49" stroke="url(#paint1_linear_429_6)" stroke-opacity="0.4" stroke-width="2"/>
</g>
<path d="M49.5 64.6172C44.8989 64.6172 39.7099 63.5968 35.6194 61.8926C34.1191 61.2606 32.8342 60.2385 31.7839 59.4316C31.7318 59.3918 31.6696 59.3673 31.6043 59.361C31.539 59.3546 31.4733 59.3667 31.4145 59.3958C31.3557 59.4248 31.3062 59.4698 31.2716 59.5255C31.237 59.5812 31.2187 59.6455 31.2188 59.7111V60.8168C31.2188 63.2839 33.2833 65.4943 37.0318 67.0412C40.3849 68.4255 44.8128 69.1875 49.5 69.1875C54.1872 69.1875 58.6143 68.4255 61.9682 67.0412C65.7167 65.4961 67.7812 63.2839 67.7812 60.8168V59.7111C67.7813 59.6455 67.763 59.5812 67.7284 59.5255C67.6938 59.4698 67.6443 59.4248 67.5855 59.3958C67.5267 59.3667 67.461 59.3546 67.3957 59.361C67.3304 59.3673 67.2682 59.3918 67.2161 59.4316C66.1658 60.2376 64.8809 61.2606 63.3797 61.8926C59.2893 63.5968 54.1011 64.6172 49.5 64.6172ZM67.7812 38.119C67.7101 35.6889 65.6561 33.5136 61.9805 31.9799C58.6178 30.5824 54.1881 29.8125 49.5 29.8125C44.8119 29.8125 40.3822 30.5824 37.0274 31.9799C33.3554 33.5101 31.3014 35.681 31.2267 38.105L31.2188 39.6563C31.2188 40.2196 31.6758 41.1047 32.5046 41.8298C33.4828 42.685 34.9348 43.5287 36.704 44.267C40.4684 45.8402 45.2522 46.7754 49.5 46.7754C53.7478 46.7754 58.5316 45.8367 62.296 44.2635C64.0652 43.5252 65.5172 42.6814 66.4954 41.8263C67.3242 41.1056 67.7812 40.2205 67.7812 39.6563V38.119Z" fill="url(#paint2_linear_429_6)"/>
<path d="M63.3797 46.8633C59.2902 48.5711 54.1011 49.5879 49.5 49.5879C44.8989 49.5879 39.7099 48.5711 35.6195 46.8633C34.1192 46.2349 32.8342 45.2119 31.7839 44.4024C31.7316 44.3624 31.669 44.3379 31.6034 44.3316C31.5378 44.3254 31.4718 44.3378 31.4129 44.3673C31.354 44.3968 31.3045 44.4423 31.2702 44.4985C31.2359 44.5548 31.2181 44.6195 31.2188 44.6854V47.3907C31.2188 47.9541 31.6758 48.6633 32.5046 49.3884C33.4828 50.2445 34.9348 51.0874 36.704 51.8265C40.4684 53.3971 45.2523 54.334 49.5 54.334C53.7478 54.334 58.5317 53.3954 62.296 51.823C64.0653 51.0838 65.5172 50.241 66.4954 49.3849C67.3242 48.6625 67.7813 47.9541 67.7813 47.3907V44.6854C67.7813 44.6198 67.763 44.5555 67.7284 44.4998C67.6938 44.4441 67.6443 44.3991 67.5856 44.37C67.5268 44.341 67.461 44.3289 67.3957 44.3353C67.3304 44.3416 67.2682 44.3661 67.2161 44.4059C66.1658 45.2119 64.8809 46.2349 63.3797 46.8633Z" fill="url(#paint3_linear_429_6)"/>
<path d="M63.3797 54.4219C59.2893 56.1279 54.1011 57.1465 49.5 57.1465C44.8989 57.1465 39.7099 56.1279 35.6194 54.4219C34.1191 53.7917 32.8342 52.7687 31.7839 51.961C31.7317 51.921 31.6693 51.8966 31.6039 51.8903C31.5384 51.884 31.4725 51.8962 31.4137 51.9255C31.3548 51.9548 31.3054 52 31.2709 52.056C31.2364 52.112 31.2184 52.1765 31.2188 52.2422V54.8614C31.2188 55.4248 31.6758 56.1332 32.5037 56.8574C33.4819 57.7134 34.9348 58.5563 36.704 59.2955C40.4684 60.8661 45.2514 61.8047 49.5 61.8047C53.7486 61.8047 58.5316 60.8661 62.296 59.2937C64.0652 58.5545 65.5172 57.7117 66.4954 56.8556C67.3242 56.1305 67.7813 55.4212 67.7813 54.8614V52.2422C67.7813 52.1766 67.763 52.1124 67.7284 52.0566C67.6938 52.0009 67.6443 51.9559 67.5855 51.9269C67.5267 51.8978 67.461 51.8857 67.3957 51.8921C67.3304 51.8984 67.2682 51.9229 67.2161 51.9627C66.1658 52.7687 64.8809 53.7917 63.3797 54.4219Z" fill="url(#paint4_linear_429_6)"/>
<defs>
<filter id="filter0_b_429_6" x="-4" y="-4" width="108" height="108" filterUnits="userSpaceOnUse" color-interpolation-filters="sRGB">
<feFlood flood-opacity="0" result="BackgroundImageFix"/>
<feGaussianBlur in="BackgroundImageFix" stdDeviation="2"/>
<feComposite in2="SourceAlpha" operator="in" result="effect1_backgroundBlur_429_6"/>
<feBlend mode="normal" in="SourceGraphic" in2="effect1_backgroundBlur_429_6" result="shape"/>
</filter>
<linearGradient id="paint0_linear_429_6" x1="50" y1="0" x2="50" y2="100" gradientUnits="userSpaceOnUse">
<stop stop-color="#0096BD"/>
<stop offset="1" stop-color="#005B72"/>
</linearGradient>
<linearGradient id="paint1_linear_429_6" x1="25.3577" y1="75.5" x2="93.3208" y2="19.3258" gradientUnits="userSpaceOnUse">
<stop stop-color="#0057BB"/>
<stop offset="1" stop-color="#00DA5A"/>
</linearGradient>
<linearGradient id="paint2_linear_429_6" x1="49.5" y1="29.8125" x2="49.5" y2="69.1875" gradientUnits="userSpaceOnUse">
<stop stop-color="#00A5CF"/>
<stop offset="1" stop-color="#75C4D9"/>
</linearGradient>
<linearGradient id="paint3_linear_429_6" x1="49.5" y1="44.3301" x2="49.5" y2="54.334" gradientUnits="userSpaceOnUse">
<stop stop-color="#00A5CF"/>
<stop offset="1" stop-color="#75C4D9"/>
</linearGradient>
<linearGradient id="paint4_linear_429_6" x1="49.5" y1="51.8887" x2="49.5" y2="61.8047" gradientUnits="userSpaceOnUse">
<stop stop-color="#00A5CF"/>
<stop offset="1" stop-color="#75C4D9"/>
</linearGradient>
</defs>
</svg>
