<svg width="100" height="100" viewBox="0 0 100 100" fill="none" xmlns="http://www.w3.org/2000/svg">
<g filter="url(#filter0_b_429_31)">
<circle cx="50" cy="50" r="50" fill="url(#paint0_linear_429_31)" fill-opacity="0.2"/>
<circle cx="50" cy="50" r="49" stroke="url(#paint1_linear_429_31)" stroke-opacity="0.4" stroke-width="2"/>
</g>
<path d="M50 30.5C39.2478 30.5 30.5 39.2478 30.5 50C30.5 60.7522 39.2478 69.5 50 69.5C60.7522 69.5 69.5 60.7522 69.5 50C69.5 39.2478 60.7522 30.5 50 30.5ZM61.25 47.5766C61.25 47.7909 61.1649 47.9964 61.0133 48.148C60.8618 48.2995 60.6562 48.3847 60.4419 48.3847H54.86C54.7001 48.3849 54.5437 48.3377 54.4107 48.249C54.2777 48.1602 54.1741 48.034 54.1129 47.8863C54.0518 47.7385 54.0359 47.576 54.0672 47.4192C54.0986 47.2624 54.1758 47.1185 54.2891 47.0056L56.3675 44.9272L55.8425 44.3169C54.9034 43.342 53.7374 42.615 52.4487 42.2009C51.16 41.7868 49.7887 41.6985 48.4575 41.9439C47.1263 42.1892 45.8767 42.7607 44.8203 43.6071C43.764 44.4535 42.9338 45.5484 42.4041 46.7941C41.8744 48.0398 41.6615 49.3973 41.7847 50.7453C41.9078 52.0933 42.3631 53.3898 43.1098 54.5188C43.8565 55.6478 44.8713 56.5743 46.0635 57.2152C47.2558 57.8562 48.5883 58.1918 49.9419 58.1919C51.6359 58.1903 53.288 57.6646 54.6714 56.6869C56.0548 55.7091 57.1018 54.3273 57.6687 52.7309C57.7344 52.545 57.8361 52.3739 57.9679 52.2273C58.0997 52.0807 58.2591 51.9614 58.437 51.8764C58.6149 51.7914 58.8078 51.7423 59.0047 51.7318C59.2016 51.7214 59.3986 51.7498 59.5845 51.8155C59.7704 51.8811 59.9416 51.9828 60.0882 52.1146C60.2348 52.2465 60.354 52.4059 60.439 52.5838C60.524 52.7617 60.5732 52.9546 60.5836 53.1514C60.5941 53.3483 60.5657 53.5453 60.5 53.7312C59.8163 55.6661 58.6139 57.3758 57.0242 58.6734C55.4345 59.9711 53.5186 60.8068 51.4861 61.0891C49.4535 61.3715 47.3824 61.0897 45.4992 60.2745C43.6159 59.4594 41.993 58.1422 40.8078 56.467C39.6226 54.7918 38.9207 52.823 38.7788 50.7758C38.6369 48.7286 39.0605 46.6818 40.0033 44.8591C40.9461 43.0364 42.3718 41.508 44.1246 40.4408C45.8774 39.3736 47.8898 38.8088 49.9419 38.8081C51.4564 38.8023 52.956 39.1067 54.3484 39.7025C55.7408 40.2982 56.9965 41.1727 58.0381 42.2722L58.0906 42.3303L58.4947 42.7991L59.8709 41.4228C59.9442 41.3478 60.0317 41.2882 60.1283 41.2473C60.2248 41.2064 60.3286 41.1851 60.4334 41.1847C60.5401 41.1838 60.646 41.2041 60.7448 41.2444C60.8436 41.2847 60.9334 41.3442 61.0091 41.4194C61.0848 41.4947 61.1448 41.5842 61.1857 41.6828C61.2265 41.7813 61.2474 41.887 61.2472 41.9938L61.25 47.5766Z" fill="url(#paint2_linear_429_31)"/>
<defs>
<filter id="filter0_b_429_31" x="-4" y="-4" width="108" height="108" filterUnits="userSpaceOnUse" color-interpolation-filters="sRGB">
<feFlood flood-opacity="0" result="BackgroundImageFix"/>
<feGaussianBlur in="BackgroundImageFix" stdDeviation="2"/>
<feComposite in2="SourceAlpha" operator="in" result="effect1_backgroundBlur_429_31"/>
<feBlend mode="normal" in="SourceGraphic" in2="effect1_backgroundBlur_429_31" result="shape"/>
</filter>
<linearGradient id="paint0_linear_429_31" x1="50" y1="0" x2="50" y2="100" gradientUnits="userSpaceOnUse">
<stop stop-color="#0096BD"/>
<stop offset="1" stop-color="#005B72"/>
</linearGradient>
<linearGradient id="paint1_linear_429_31" x1="25.3577" y1="75.5" x2="93.3208" y2="19.3258" gradientUnits="userSpaceOnUse">
<stop stop-color="#0057BB"/>
<stop offset="1" stop-color="#00DA5A"/>
</linearGradient>
<linearGradient id="paint2_linear_429_31" x1="50" y1="30.5" x2="50" y2="69.5" gradientUnits="userSpaceOnUse">
<stop stop-color="#00A5CF"/>
<stop offset="1" stop-color="#75C4D9"/>
</linearGradient>
</defs>
</svg>
