<svg width="100" height="100" viewBox="0 0 100 100" fill="none" xmlns="http://www.w3.org/2000/svg">
<g filter="url(#filter0_b_380_49)">
<circle cx="50" cy="50" r="50" fill="url(#paint0_linear_380_49)" fill-opacity="0.2"/>
<circle cx="50" cy="50" r="49.5" stroke="url(#paint1_linear_380_49)" stroke-opacity="0.4"/>
</g>
<path d="M49.5 63.6172C44.8989 63.6172 39.7099 62.5968 35.6194 60.8926C34.1191 60.2606 32.8342 59.2385 31.7839 58.4316C31.7318 58.3918 31.6696 58.3673 31.6043 58.361C31.539 58.3546 31.4733 58.3667 31.4145 58.3958C31.3557 58.4248 31.3062 58.4698 31.2716 58.5255C31.237 58.5812 31.2187 58.6455 31.2188 58.7111V59.8168C31.2188 62.2839 33.2833 64.4943 37.0318 66.0412C40.3849 67.4255 44.8128 68.1875 49.5 68.1875C54.1872 68.1875 58.6143 67.4255 61.9682 66.0412C65.7167 64.4961 67.7812 62.2839 67.7812 59.8168V58.7111C67.7813 58.6455 67.763 58.5812 67.7284 58.5255C67.6938 58.4698 67.6443 58.4248 67.5855 58.3958C67.5267 58.3667 67.461 58.3546 67.3957 58.361C67.3304 58.3673 67.2682 58.3918 67.2161 58.4316C66.1658 59.2376 64.8809 60.2606 63.3797 60.8926C59.2893 62.5968 54.1011 63.6172 49.5 63.6172ZM67.7812 37.119C67.7101 34.6889 65.6561 32.5136 61.9805 30.9799C58.6178 29.5824 54.1881 28.8125 49.5 28.8125C44.8119 28.8125 40.3822 29.5824 37.0274 30.9799C33.3554 32.5101 31.3014 34.681 31.2267 37.105L31.2188 38.6563C31.2188 39.2196 31.6758 40.1047 32.5046 40.8298C33.4828 41.685 34.9348 42.5287 36.704 43.267C40.4684 44.8402 45.2522 45.7754 49.5 45.7754C53.7478 45.7754 58.5316 44.8367 62.296 43.2635C64.0652 42.5252 65.5172 41.6814 66.4954 40.8263C67.3242 40.1056 67.7812 39.2205 67.7812 38.6563V37.119Z" fill="url(#paint2_linear_380_49)"/>
<path d="M63.3797 45.8633C59.2902 47.5711 54.1011 48.5879 49.5 48.5879C44.8989 48.5879 39.7099 47.5711 35.6195 45.8633C34.1192 45.2349 32.8342 44.2119 31.7839 43.4024C31.7316 43.3624 31.669 43.3379 31.6034 43.3316C31.5378 43.3254 31.4718 43.3378 31.4129 43.3673C31.354 43.3968 31.3045 43.4423 31.2702 43.4985C31.2359 43.5548 31.2181 43.6195 31.2188 43.6854V46.3907C31.2188 46.9541 31.6758 47.6633 32.5046 48.3884C33.4828 49.2445 34.9348 50.0874 36.704 50.8265C40.4684 52.3971 45.2523 53.334 49.5 53.334C53.7478 53.334 58.5317 52.3954 62.296 50.823C64.0653 50.0838 65.5172 49.241 66.4954 48.3849C67.3242 47.6625 67.7813 46.9541 67.7813 46.3907V43.6854C67.7813 43.6198 67.763 43.5555 67.7284 43.4998C67.6938 43.4441 67.6443 43.3991 67.5856 43.37C67.5268 43.341 67.461 43.3289 67.3957 43.3353C67.3304 43.3416 67.2682 43.3661 67.2161 43.4059C66.1658 44.2119 64.8809 45.2349 63.3797 45.8633Z" fill="url(#paint3_linear_380_49)"/>
<path d="M63.3797 53.4219C59.2893 55.1279 54.1011 56.1465 49.5 56.1465C44.8989 56.1465 39.7099 55.1279 35.6194 53.4219C34.1191 52.7917 32.8342 51.7687 31.7839 50.961C31.7317 50.921 31.6693 50.8966 31.6039 50.8903C31.5384 50.884 31.4725 50.8962 31.4137 50.9255C31.3548 50.9548 31.3054 51 31.2709 51.056C31.2364 51.112 31.2184 51.1765 31.2188 51.2422V53.8614C31.2188 54.4248 31.6758 55.1332 32.5037 55.8574C33.4819 56.7134 34.9348 57.5563 36.704 58.2955C40.4684 59.8661 45.2514 60.8047 49.5 60.8047C53.7486 60.8047 58.5316 59.8661 62.296 58.2937C64.0652 57.5545 65.5172 56.7117 66.4954 55.8556C67.3242 55.1305 67.7813 54.4212 67.7813 53.8614V51.2422C67.7813 51.1766 67.763 51.1124 67.7284 51.0566C67.6938 51.0009 67.6443 50.9559 67.5855 50.9269C67.5267 50.8978 67.461 50.8857 67.3957 50.8921C67.3304 50.8984 67.2682 50.9229 67.2161 50.9627C66.1658 51.7687 64.8809 52.7917 63.3797 53.4219Z" fill="url(#paint4_linear_380_49)"/>
<defs>
<filter id="filter0_b_380_49" x="-4" y="-4" width="108" height="108" filterUnits="userSpaceOnUse" color-interpolation-filters="sRGB">
<feFlood flood-opacity="0" result="BackgroundImageFix"/>
<feGaussianBlur in="BackgroundImageFix" stdDeviation="2"/>
<feComposite in2="SourceAlpha" operator="in" result="effect1_backgroundBlur_380_49"/>
<feBlend mode="normal" in="SourceGraphic" in2="effect1_backgroundBlur_380_49" result="shape"/>
</filter>
<linearGradient id="paint0_linear_380_49" x1="50" y1="0" x2="50" y2="100" gradientUnits="userSpaceOnUse">
<stop stop-color="#0096BD"/>
<stop offset="1" stop-color="#005B72"/>
</linearGradient>
<linearGradient id="paint1_linear_380_49" x1="50" y1="0" x2="50" y2="100" gradientUnits="userSpaceOnUse">
<stop stop-color="#D7D7D7"/>
<stop offset="1" stop-color="#526F76"/>
</linearGradient>
<linearGradient id="paint2_linear_380_49" x1="49.5" y1="28.8125" x2="49.5" y2="68.1875" gradientUnits="userSpaceOnUse">
<stop stop-color="#00A5CF"/>
<stop offset="1" stop-color="#75C4D9"/>
</linearGradient>
<linearGradient id="paint3_linear_380_49" x1="49.5" y1="43.3301" x2="49.5" y2="53.334" gradientUnits="userSpaceOnUse">
<stop stop-color="#00A5CF"/>
<stop offset="1" stop-color="#75C4D9"/>
</linearGradient>
<linearGradient id="paint4_linear_380_49" x1="49.5" y1="50.8887" x2="49.5" y2="60.8047" gradientUnits="userSpaceOnUse">
<stop stop-color="#00A5CF"/>
<stop offset="1" stop-color="#75C4D9"/>
</linearGradient>
</defs>
</svg>
