<svg width="100" height="100" viewBox="0 0 100 100" fill="none" xmlns="http://www.w3.org/2000/svg">
<g filter="url(#filter0_b_429_38)">
<circle cx="50" cy="50" r="50" fill="url(#paint0_linear_429_38)" fill-opacity="0.2"/>
<circle cx="50" cy="50" r="49" stroke="url(#paint1_linear_429_38)" stroke-opacity="0.4" stroke-width="2"/>
</g>
<path d="M62.8594 35.4375H49.1581C48.742 35.4388 48.3348 35.3165 47.9883 35.0859L45.5449 33.4521C44.7358 32.911 43.784 32.6231 42.8107 32.625H36.1406C34.8357 32.6264 33.5846 33.1454 32.6619 34.0681C31.7392 34.9909 31.2202 36.242 31.2188 37.5469V39.6563H67.7813C67.7813 36.9422 65.5734 35.4375 62.8594 35.4375ZM64.2437 66.375H34.7564C33.4649 66.3735 32.2258 65.8645 31.3062 64.9578C30.3866 64.051 29.8602 62.8192 29.8406 61.5278L28.4221 47.0487V47.0241C28.3756 46.4438 28.4498 45.8601 28.6399 45.3099C28.83 44.7596 29.132 44.2546 29.5267 43.8268C29.9215 43.3989 30.4006 43.0573 30.9338 42.8236C31.467 42.5899 32.0428 42.4691 32.625 42.4688H66.3838C66.9658 42.4693 67.5415 42.5903 68.0745 42.8241C68.6075 43.058 69.0863 43.3995 69.4809 43.8274C69.8755 44.2553 70.1773 44.7601 70.3673 45.3103C70.5573 45.8604 70.6314 46.444 70.585 47.0241V47.0487L69.1594 61.5278C69.1398 62.8192 68.6134 64.051 67.6938 64.9578C66.7743 65.8645 65.5351 66.3735 64.2437 66.375Z" fill="url(#paint2_linear_429_38)"/>
<defs>
<filter id="filter0_b_429_38" x="-4" y="-4" width="108" height="108" filterUnits="userSpaceOnUse" color-interpolation-filters="sRGB">
<feFlood flood-opacity="0" result="BackgroundImageFix"/>
<feGaussianBlur in="BackgroundImageFix" stdDeviation="2"/>
<feComposite in2="SourceAlpha" operator="in" result="effect1_backgroundBlur_429_38"/>
<feBlend mode="normal" in="SourceGraphic" in2="effect1_backgroundBlur_429_38" result="shape"/>
</filter>
<linearGradient id="paint0_linear_429_38" x1="50" y1="0" x2="50" y2="100" gradientUnits="userSpaceOnUse">
<stop stop-color="#0096BD"/>
<stop offset="1" stop-color="#005B72"/>
</linearGradient>
<linearGradient id="paint1_linear_429_38" x1="25.3577" y1="75.5" x2="93.3208" y2="19.3258" gradientUnits="userSpaceOnUse">
<stop stop-color="#0057BB"/>
<stop offset="1" stop-color="#00DA5A"/>
</linearGradient>
<linearGradient id="paint2_linear_429_38" x1="49.5035" y1="32.625" x2="49.5035" y2="66.375" gradientUnits="userSpaceOnUse">
<stop stop-color="#00A5CF"/>
<stop offset="1" stop-color="#75C4D9"/>
</linearGradient>
</defs>
</svg>
