<svg width="100" height="100" viewBox="0 0 100 100" fill="none" xmlns="http://www.w3.org/2000/svg">
<g filter="url(#filter0_b_380_51)">
<circle cx="50" cy="50" r="50" fill="url(#paint0_linear_380_51)" fill-opacity="0.2"/>
<circle cx="50" cy="50" r="49.5" stroke="url(#paint1_linear_380_51)" stroke-opacity="0.4"/>
</g>
<path d="M68.2681 37.5926C68.1668 37.3957 68.0205 37.2254 67.841 37.0957C67.6615 36.9661 67.4539 36.8806 67.2351 36.8464C67.0163 36.8121 66.7925 36.83 66.582 36.8986C66.3714 36.9671 66.18 37.0845 66.0234 37.241L60.6234 42.6446C60.3583 42.9058 60.0011 43.0522 59.6289 43.0522C59.2567 43.0522 58.8995 42.9058 58.6344 42.6446L56.3 40.3067C56.1694 40.1761 56.0658 40.021 55.9951 39.8504C55.9244 39.6798 55.8881 39.4969 55.8881 39.3122C55.8881 39.1275 55.9244 38.9446 55.9951 38.774C56.0658 38.6033 56.1694 38.4483 56.3 38.3177L61.6772 32.9397C61.8384 32.7785 61.958 32.5806 62.0257 32.3629C62.0934 32.1452 62.1072 31.9144 62.0658 31.6902C62.0245 31.466 61.9293 31.2553 61.7884 31.0761C61.6475 30.8969 61.4652 30.7546 61.2571 30.6616C57.1957 28.8457 52.1261 29.7932 48.9295 32.966C46.2137 35.6625 45.4042 39.876 46.7103 44.5263C46.7807 44.7743 46.7811 45.0369 46.7115 45.2851C46.6418 45.5333 46.5048 45.7574 46.3157 45.9325L31.6836 59.2963C31.1136 59.8081 30.6538 60.4307 30.3323 61.126C30.0108 61.8214 29.8344 62.5749 29.8137 63.3407C29.793 64.1065 29.9286 64.8685 30.2121 65.5801C30.4956 66.2918 30.9211 66.9383 31.4627 67.4801C32.0042 68.0219 32.6505 68.4477 33.3621 68.7315C34.0736 69.0153 34.8355 69.1512 35.6013 69.1309C36.3671 69.1105 37.1208 68.9344 37.8162 68.6132C38.5117 68.292 39.1345 67.8325 39.6465 67.2627L53.1536 52.5982C53.3262 52.4115 53.5465 52.2754 53.7907 52.2046C54.035 52.1338 54.2939 52.131 54.5396 52.1965C55.8635 52.5593 57.2292 52.7475 58.6019 52.7564C61.5375 52.7564 64.1135 51.8063 65.9715 49.9755C69.4125 46.5856 69.9372 40.8358 68.2681 37.5926ZM35.7433 66.3003C35.1645 66.3635 34.5803 66.2455 34.0714 65.9625C33.5625 65.6795 33.1539 65.2456 32.9021 64.7205C32.6504 64.1955 32.5678 63.6053 32.6657 63.0313C32.7637 62.4573 33.0374 61.9279 33.449 61.516C33.8607 61.1042 34.39 60.8303 34.964 60.7322C35.538 60.634 36.1282 60.7164 36.6533 60.968C37.1785 61.2196 37.6126 61.628 37.8957 62.1368C38.1789 62.6456 38.2971 63.2298 38.2341 63.8086C38.1648 64.4455 37.8802 65.0397 37.4272 65.4928C36.9743 65.9459 36.3802 66.2308 35.7433 66.3003Z" fill="url(#paint2_linear_380_51)"/>
<defs>
<filter id="filter0_b_380_51" x="-4" y="-4" width="108" height="108" filterUnits="userSpaceOnUse" color-interpolation-filters="sRGB">
<feFlood flood-opacity="0" result="BackgroundImageFix"/>
<feGaussianBlur in="BackgroundImageFix" stdDeviation="2"/>
<feComposite in2="SourceAlpha" operator="in" result="effect1_backgroundBlur_380_51"/>
<feBlend mode="normal" in="SourceGraphic" in2="effect1_backgroundBlur_380_51" result="shape"/>
</filter>
<linearGradient id="paint0_linear_380_51" x1="50" y1="0" x2="50" y2="100" gradientUnits="userSpaceOnUse">
<stop stop-color="#0096BD"/>
<stop offset="1" stop-color="#005B72"/>
</linearGradient>
<linearGradient id="paint1_linear_380_51" x1="50" y1="0" x2="50" y2="100" gradientUnits="userSpaceOnUse">
<stop stop-color="#D7D7D7"/>
<stop offset="1" stop-color="#526F76"/>
</linearGradient>
<linearGradient id="paint2_linear_380_51" x1="49.4978" y1="29.7466" x2="49.4978" y2="69.1329" gradientUnits="userSpaceOnUse">
<stop stop-color="#00A5CF"/>
<stop offset="1" stop-color="#75C4D9"/>
</linearGradient>
</defs>
</svg>
