<svg width="100" height="100" viewBox="0 0 100 100" fill="none" xmlns="http://www.w3.org/2000/svg">
<g filter="url(#filter0_b_429_37)">
<circle cx="50" cy="50" r="50" fill="url(#paint0_linear_429_37)" fill-opacity="0.2"/>
<circle cx="50" cy="50" r="49" stroke="url(#paint1_linear_429_37)" stroke-opacity="0.4" stroke-width="2"/>
</g>
<path d="M68.2682 37.5926C68.1669 37.3957 68.0206 37.2254 67.8411 37.0957C67.6615 36.9661 67.4539 36.8806 67.2352 36.8464C67.0164 36.8121 66.7926 36.83 66.582 36.8986C66.3715 36.9671 66.1801 37.0845 66.0234 37.241L60.6234 42.6446C60.3584 42.9058 60.0011 43.0522 59.629 43.0522C59.2568 43.0522 58.8996 42.9058 58.6345 42.6446L56.3001 40.3067C56.1695 40.1761 56.0659 40.021 55.9952 39.8504C55.9245 39.6798 55.8881 39.4969 55.8881 39.3122C55.8881 39.1275 55.9245 38.9446 55.9952 38.774C56.0659 38.6033 56.1695 38.4483 56.3001 38.3177L61.6773 32.9397C61.8385 32.7785 61.9581 32.5806 62.0258 32.3629C62.0935 32.1452 62.1072 31.9144 62.0659 31.6902C62.0245 31.466 61.9293 31.2553 61.7884 31.0761C61.6476 30.8969 61.4652 30.7546 61.2571 30.6616C57.1957 28.8457 52.1262 29.7932 48.9296 32.966C46.2138 35.6625 45.4043 39.876 46.7104 44.5263C46.7808 44.7743 46.7812 45.0369 46.7115 45.2851C46.6419 45.5333 46.5049 45.7574 46.3157 45.9325L31.6837 59.2963C31.1137 59.8081 30.6539 60.4307 30.3324 61.126C30.0109 61.8214 29.8344 62.5749 29.8138 63.3407C29.7931 64.1065 29.9286 64.8685 30.2121 65.5801C30.4956 66.2918 30.9212 66.9383 31.4627 67.4801C32.0043 68.0219 32.6506 68.4477 33.3621 68.7315C34.0737 69.0153 34.8356 69.1512 35.6014 69.1309C36.3672 69.1105 37.1208 68.9344 37.8163 68.6132C38.5118 68.292 39.1345 67.8325 39.6466 67.2627L53.1536 52.5982C53.3262 52.4115 53.5465 52.2754 53.7908 52.2046C54.035 52.1338 54.2939 52.131 54.5397 52.1965C55.8636 52.5593 57.2293 52.7475 58.602 52.7564C61.5375 52.7564 64.1136 51.8063 65.9716 49.9755C69.4125 46.5856 69.9372 40.8358 68.2682 37.5926ZM35.7434 66.3003C35.1645 66.3635 34.5803 66.2455 34.0714 65.9625C33.5625 65.6795 33.154 65.2456 32.9022 64.7205C32.6504 64.1955 32.5678 63.6053 32.6658 63.0313C32.7637 62.4573 33.0374 61.9279 33.4491 61.516C33.8608 61.1042 34.3901 60.8303 34.9641 60.7322C35.538 60.634 36.1283 60.7164 36.6534 60.968C37.1785 61.2196 37.6126 61.628 37.8958 62.1368C38.1789 62.6456 38.2972 63.2298 38.2342 63.8086C38.1649 64.4455 37.8802 65.0397 37.4273 65.4928C36.9743 65.9459 36.3803 66.2308 35.7434 66.3003Z" fill="url(#paint2_linear_429_37)"/>
<defs>
<filter id="filter0_b_429_37" x="-4" y="-4" width="108" height="108" filterUnits="userSpaceOnUse" color-interpolation-filters="sRGB">
<feFlood flood-opacity="0" result="BackgroundImageFix"/>
<feGaussianBlur in="BackgroundImageFix" stdDeviation="2"/>
<feComposite in2="SourceAlpha" operator="in" result="effect1_backgroundBlur_429_37"/>
<feBlend mode="normal" in="SourceGraphic" in2="effect1_backgroundBlur_429_37" result="shape"/>
</filter>
<linearGradient id="paint0_linear_429_37" x1="50" y1="0" x2="50" y2="100" gradientUnits="userSpaceOnUse">
<stop stop-color="#0096BD"/>
<stop offset="1" stop-color="#005B72"/>
</linearGradient>
<linearGradient id="paint1_linear_429_37" x1="25.3577" y1="75.5" x2="93.3208" y2="19.3258" gradientUnits="userSpaceOnUse">
<stop stop-color="#0057BB"/>
<stop offset="1" stop-color="#00DA5A"/>
</linearGradient>
<linearGradient id="paint2_linear_429_37" x1="49.4979" y1="29.7466" x2="49.4979" y2="69.1329" gradientUnits="userSpaceOnUse">
<stop stop-color="#00A5CF"/>
<stop offset="1" stop-color="#75C4D9"/>
</linearGradient>
</defs>
</svg>
