<svg width="100" height="100" viewBox="0 0 100 100" fill="none" xmlns="http://www.w3.org/2000/svg">
<g filter="url(#filter0_b_380_48)">
<circle cx="50" cy="50" r="50" fill="url(#paint0_linear_380_48)" fill-opacity="0.2"/>
<circle cx="50" cy="50" r="49" stroke="url(#paint1_linear_380_48)" stroke-opacity="0.4" stroke-width="2"/>
</g>
<path d="M29.4552 59.5048C29.4564 60.6405 29.9077 61.7294 30.7102 62.5325C31.5127 63.3356 32.6008 63.7873 33.7357 63.7885H45.6747L45.318 66.6442H40.8698C40.4914 66.6442 40.1285 66.7947 39.8609 67.0624C39.5933 67.3302 39.443 67.6934 39.443 68.0721C39.443 68.4508 39.5933 68.814 39.8609 69.0818C40.1285 69.3496 40.4914 69.5 40.8698 69.5H60.8454C61.2239 69.5 61.5868 69.3496 61.8544 69.0818C62.1219 68.814 62.2723 68.4508 62.2723 68.0721C62.2723 67.6934 62.1219 67.3302 61.8544 67.0624C61.5868 66.7947 61.2239 66.6442 60.8454 66.6442H56.3973L56.0406 63.7885H67.9796C69.1145 63.7873 70.2026 63.3356 71.005 62.5325C71.8075 61.7294 72.2589 60.6405 72.2601 59.5048V55.2212H29.4552V59.5048ZM50.8576 58.0769C51.1398 58.0769 51.4157 58.1607 51.6503 58.3176C51.885 58.4745 52.0679 58.6975 52.1759 58.9584C52.2839 59.2193 52.3121 59.5064 52.2571 59.7834C52.202 60.0604 52.0661 60.3148 51.8666 60.5145C51.667 60.7142 51.4128 60.8502 51.136 60.9053C50.8592 60.9604 50.5723 60.9321 50.3116 60.824C50.0509 60.7159 49.8281 60.5329 49.6713 60.2981C49.5145 60.0633 49.4308 59.7872 49.4308 59.5048C49.4308 59.1261 49.5811 58.7629 49.8487 58.4951C50.1163 58.2274 50.4792 58.0769 50.8576 58.0769ZM72.2601 36.6587C72.2589 35.5229 71.8075 34.434 71.005 33.631C70.2026 32.8279 69.1145 32.3762 67.9796 32.375H33.7357C32.6008 32.3762 31.5127 32.8279 30.7102 33.631C29.9077 34.434 29.4564 35.5229 29.4552 36.6587V53.7933H72.2601V36.6587Z" fill="url(#paint2_linear_380_48)"/>
<defs>
<filter id="filter0_b_380_48" x="-4" y="-4" width="108" height="108" filterUnits="userSpaceOnUse" color-interpolation-filters="sRGB">
<feFlood flood-opacity="0" result="BackgroundImageFix"/>
<feGaussianBlur in="BackgroundImageFix" stdDeviation="2"/>
<feComposite in2="SourceAlpha" operator="in" result="effect1_backgroundBlur_380_48"/>
<feBlend mode="normal" in="SourceGraphic" in2="effect1_backgroundBlur_380_48" result="shape"/>
</filter>
<linearGradient id="paint0_linear_380_48" x1="50" y1="0" x2="50" y2="100" gradientUnits="userSpaceOnUse">
<stop stop-color="#0096BD"/>
<stop offset="1" stop-color="#005B72"/>
</linearGradient>
<linearGradient id="paint1_linear_380_48" x1="25.3577" y1="75.5" x2="93.3208" y2="19.3258" gradientUnits="userSpaceOnUse">
<stop stop-color="#0057BB"/>
<stop offset="1" stop-color="#00DA5A"/>
</linearGradient>
<linearGradient id="paint2_linear_380_48" x1="50.8576" y1="32.375" x2="50.8576" y2="69.5" gradientUnits="userSpaceOnUse">
<stop stop-color="#00A5CF"/>
<stop offset="1" stop-color="#75C4D9"/>
</linearGradient>
</defs>
</svg>
