<svg width="100" height="100" viewBox="0 0 100 100" fill="none" xmlns="http://www.w3.org/2000/svg">
<g filter="url(#filter0_b_380_50)">
<circle cx="50" cy="50" r="50" fill="url(#paint0_linear_380_50)" fill-opacity="0.2"/>
<circle cx="50" cy="50" r="49.5" stroke="url(#paint1_linear_380_50)" stroke-opacity="0.4"/>
</g>
<path d="M57.9453 58.2959C58.4994 56.3553 58.866 54.1006 59.0056 51.9359C59.0087 51.8794 59.0002 51.8228 58.9805 51.7697C58.9608 51.7166 58.9304 51.6681 58.8912 51.6272C58.852 51.5863 58.8048 51.5539 58.7526 51.532C58.7003 51.5102 58.6442 51.4992 58.5875 51.5H51.9256C51.8711 51.4995 51.817 51.5097 51.7664 51.5301C51.7158 51.5506 51.6698 51.5807 51.6309 51.619C51.592 51.6572 51.561 51.7027 51.5396 51.7529C51.5183 51.8031 51.5071 51.857 51.5066 51.9115V57.0959C51.5078 57.2006 51.5484 57.301 51.6203 57.3772C51.6922 57.4533 51.7902 57.4995 51.8947 57.5065C53.7721 57.6582 55.627 58.0163 57.426 58.5743C57.5318 58.6062 57.6459 58.5947 57.7432 58.5425C57.8406 58.4903 57.9133 58.4016 57.9453 58.2959ZM56.3356 61.3728C54.9084 60.9561 53.4461 60.6708 51.9669 60.5206C51.9098 60.5142 51.8519 60.5198 51.7971 60.5369C51.7422 60.5541 51.6915 60.5825 51.6482 60.6204C51.6049 60.6582 51.57 60.7046 51.5456 60.7567C51.5212 60.8087 51.5079 60.8653 51.5066 60.9228V67.039C51.5088 67.112 51.5301 67.1831 51.5683 67.2453C51.6065 67.3075 51.6602 67.3587 51.7242 67.3937C51.7883 67.4288 51.8603 67.4465 51.9333 67.4451C52.0063 67.4437 52.0777 67.4233 52.1403 67.3859C53.631 66.5168 54.8591 65.0572 55.9691 63.1268C56.151 62.8118 56.4275 62.269 56.5944 61.9372C56.6203 61.8838 56.6341 61.8253 56.6347 61.766C56.6354 61.7066 56.6229 61.6479 56.5982 61.5939C56.5734 61.54 56.5371 61.4922 56.4917 61.4539C56.4463 61.4157 56.393 61.388 56.3356 61.3728ZM48.0585 60.5375C46.5811 60.678 45.1199 60.9548 43.6935 61.3643C43.446 61.4356 43.3419 61.7768 43.4544 62.0009C43.6222 62.3347 43.8294 62.7612 44.0066 63.08C45.2253 65.2362 46.5228 66.5956 47.8728 67.3859C47.9355 67.4233 48.0069 67.4437 48.0798 67.4451C48.1528 67.4465 48.2249 67.4288 48.2889 67.3937C48.353 67.3587 48.4067 67.3075 48.4449 67.2453C48.4831 67.1831 48.5043 67.112 48.5066 67.039V60.92C48.5061 60.8641 48.4937 60.809 48.4701 60.7584C48.4465 60.7077 48.4123 60.6627 48.3698 60.6265C48.3273 60.5902 48.2775 60.5635 48.2238 60.5481C48.1701 60.5328 48.1137 60.5291 48.0585 60.5375ZM48.0875 51.5H41.4256C41.3691 51.4992 41.313 51.5101 41.2608 51.532C41.2087 51.5538 41.1615 51.5861 41.1223 51.6269C41.0831 51.6676 41.0527 51.716 41.033 51.769C41.0132 51.822 41.0046 51.8785 41.0075 51.935C41.1463 54.0968 41.511 56.3562 42.0631 58.295C42.0788 58.348 42.1048 58.3974 42.1397 58.4404C42.1746 58.4833 42.2177 58.5189 42.2664 58.545C42.3152 58.5712 42.3686 58.5874 42.4237 58.5928C42.4788 58.5981 42.5343 58.5925 42.5872 58.5762C44.386 58.0182 46.2411 57.661 48.1185 57.5112C48.2231 57.5044 48.3213 57.4583 48.3935 57.3821C48.4656 57.306 48.5063 57.2055 48.5075 57.1006V51.9125C48.5072 51.8578 48.496 51.8037 48.4747 51.7533C48.4533 51.7029 48.4223 51.6573 48.3832 51.6189C48.3442 51.5806 48.298 51.5504 48.2472 51.53C48.1965 51.5095 48.1422 51.4993 48.0875 51.5ZM51.9688 39.4793C53.447 39.3408 54.9075 39.0538 56.3281 38.6225C56.3852 38.6071 56.4381 38.5793 56.4832 38.5412C56.5283 38.503 56.5645 38.4554 56.5892 38.4018C56.6139 38.3481 56.6265 38.2897 56.6261 38.2306C56.6257 38.1716 56.6123 38.1133 56.5869 38.06C56.4191 37.7253 56.1866 37.2462 56.0085 36.9265C54.8563 34.864 53.5578 33.425 52.1422 32.614C52.0795 32.5769 52.0082 32.5567 51.9353 32.5555C51.8624 32.5542 51.7905 32.572 51.7266 32.607C51.6626 32.642 51.6089 32.693 51.5707 32.7551C51.5324 32.8171 51.511 32.8881 51.5085 32.9609V39.0762C51.5098 39.1337 51.5231 39.1903 51.5475 39.2424C51.5718 39.2945 51.6068 39.341 51.65 39.3789C51.6933 39.4168 51.744 39.4453 51.7989 39.4626C51.8537 39.4799 51.9116 39.4856 51.9688 39.4793ZM51.9256 48.5H58.5875C58.6437 48.5009 58.6994 48.4904 58.7513 48.469C58.8032 48.4476 58.8502 48.4158 58.8893 48.3756C58.9285 48.3354 58.959 48.2876 58.979 48.2351C58.999 48.1827 59.0081 48.1267 59.0056 48.0706C58.8669 45.9359 58.5116 43.5893 57.9594 41.675C57.9432 41.6223 57.9169 41.5734 57.8818 41.531C57.8466 41.4886 57.8035 41.4535 57.7548 41.4278C57.7061 41.4021 57.6528 41.3863 57.598 41.3813C57.5432 41.3762 57.4879 41.382 57.4353 41.3984C55.6541 41.9365 53.7988 42.3762 51.8956 42.5234C51.7916 42.5293 51.6937 42.5743 51.6216 42.6495C51.5494 42.7246 51.5083 42.8242 51.5066 42.9284V48.095C51.5086 48.2042 51.5538 48.3082 51.6324 48.3841C51.7109 48.4601 51.8164 48.5017 51.9256 48.5ZM47.8728 32.615C46.4272 33.4184 45.1381 34.9053 43.985 36.9622C43.806 37.2818 43.5922 37.7225 43.4225 38.0562C43.3973 38.1096 43.3841 38.1678 43.3837 38.2268C43.3834 38.2858 43.3961 38.3442 43.4207 38.3978C43.4454 38.4514 43.4815 38.499 43.5265 38.5372C43.5715 38.5753 43.6243 38.6032 43.6813 38.6187C45.1014 39.0579 46.5638 39.3461 48.0444 39.4784C48.1015 39.4846 48.1593 39.479 48.2141 39.4617C48.2689 39.4445 48.3195 39.4161 48.3628 39.3783C48.4061 39.3405 48.441 39.2941 48.4654 39.2421C48.4899 39.1901 48.5032 39.1336 48.5047 39.0762V32.9618C48.5017 32.8894 48.4801 32.8189 48.4419 32.7573C48.4037 32.6957 48.3503 32.6449 48.2867 32.61C48.2231 32.5751 48.1516 32.5573 48.0791 32.5581C48.0066 32.559 47.9356 32.5786 47.8728 32.615ZM48.1175 42.5243C46.2144 42.379 44.3572 41.9393 42.5778 41.3993C42.5253 41.383 42.47 41.3771 42.4152 41.3822C42.3603 41.3872 42.307 41.4031 42.2584 41.4288C42.2097 41.4545 42.1665 41.4895 42.1314 41.5319C42.0963 41.5743 42.0699 41.6233 42.0538 41.6759C41.5016 43.5903 41.1463 45.9368 41.0075 48.0715C41.0051 48.1276 41.0141 48.1836 41.0341 48.2361C41.0542 48.2885 41.0847 48.3363 41.1238 48.3765C41.163 48.4167 41.21 48.4485 41.2619 48.4699C41.3138 48.4913 41.3695 48.5019 41.4256 48.5009H48.0875C48.1418 48.5018 48.1957 48.4919 48.2461 48.4719C48.2965 48.452 48.3425 48.4222 48.3815 48.3844C48.4204 48.3466 48.4515 48.3015 48.473 48.2517C48.4944 48.2019 48.5059 48.1483 48.5066 48.094V42.9293C48.5049 42.8252 48.4638 42.7255 48.3916 42.6504C48.3194 42.5753 48.2215 42.5302 48.1175 42.5243Z" fill="url(#paint2_linear_380_50)"/>
<path d="M64.849 35.1509C62.9025 33.1851 60.5868 31.6233 58.0348 30.5552C55.4829 29.4871 52.745 28.9338 49.9786 28.9269C47.2121 28.9201 44.4716 29.46 41.9144 30.5155C39.3572 31.5711 37.0338 33.1215 35.0776 35.0776C33.1215 37.0338 31.5711 39.3572 30.5155 41.9144C29.46 44.4716 28.9201 47.2121 28.9269 49.9786C28.9338 52.745 29.4871 55.4829 30.5552 58.0348C31.6233 60.5868 33.1851 62.9025 35.1509 64.849C37.0974 66.8148 39.4132 68.3766 41.9651 69.4447C44.5171 70.5128 47.2549 71.0662 50.0214 71.073C52.7878 71.0798 55.5284 70.5399 58.0855 69.4844C60.6427 68.4289 62.9661 66.8785 64.9223 64.9223C66.8785 62.9661 68.4289 60.6427 69.4844 58.0855C70.5399 55.5284 71.0798 52.7878 71.073 50.0214C71.0662 47.2549 70.5128 44.5171 69.4447 41.9651C68.3766 39.4132 66.8148 37.0974 64.849 35.1509ZM42.5562 66.3922C42.1338 65.799 41.7433 65.1837 41.3862 64.549C41.1987 64.2031 40.9325 63.6809 40.7553 63.3181C40.7147 63.232 40.6565 63.1554 40.5846 63.0931C40.5126 63.0308 40.4285 62.9842 40.3375 62.9563C40.2465 62.9284 40.1507 62.9199 40.0562 62.9311C39.9617 62.9424 39.8706 62.9733 39.7887 63.0219C39.3856 63.2478 38.8512 63.5581 38.464 63.8122C37.6521 63.195 36.911 62.4897 36.2543 61.7094C37.1624 61.0684 38.1152 60.4932 39.1053 59.9881C39.2797 59.8944 39.365 59.7875 39.3097 59.5962C38.5842 57.0855 38.1412 54.5017 37.9887 51.8928C37.9842 51.7885 37.9399 51.6898 37.8649 51.6171C37.79 51.5444 37.69 51.5032 37.5856 51.5018H32.2662C32.221 51.5024 32.1771 51.4865 32.1427 51.4572C32.1082 51.4279 32.0855 51.3872 32.0787 51.3425C32.0198 50.8975 31.9935 50.4488 32 50C31.9936 49.552 32.0205 49.1042 32.0806 48.6603C32.0874 48.6156 32.1101 48.5748 32.1445 48.5455C32.179 48.5162 32.2229 48.5004 32.2681 48.5009H37.5875C37.8022 48.5009 37.9784 48.3772 37.9897 48.1606C38.1401 45.5625 38.5803 42.9894 39.3022 40.489C39.329 40.3978 39.3232 40.3 39.2858 40.2125C39.2483 40.1251 39.1815 40.0535 39.0968 40.01C38.128 39.5135 37.1934 38.9529 36.2993 38.3318C36.9525 37.5517 37.679 36.8359 38.4687 36.1943C38.8512 36.4456 39.35 36.7297 39.7494 36.9547C39.8374 37.0047 39.9347 37.0361 40.0354 37.047C40.136 37.0579 40.2378 37.048 40.3345 37.0179C40.4312 36.9879 40.5206 36.9383 40.5974 36.8723C40.6741 36.8062 40.7365 36.7251 40.7806 36.634C40.9569 36.2712 41.1556 35.8672 41.3487 35.5203C41.7073 34.8777 42.0997 34.2547 42.5243 33.6537C44.8619 32.5525 47.416 31.9875 50 32C52.7131 32 55.2406 32.6562 57.5497 33.7306C57.9574 34.303 58.333 34.8977 58.6747 35.5118C58.9175 35.9487 59.1753 36.484 59.3928 36.9481C59.4161 36.9975 59.4493 37.0417 59.4903 37.0778C59.5313 37.114 59.5792 37.1414 59.6312 37.1584C59.6831 37.1755 59.738 37.1817 59.7924 37.1768C59.8468 37.1719 59.8997 37.156 59.9478 37.13C60.4522 36.8572 60.9987 36.5431 61.4797 36.2272C62.2717 36.875 63 37.597 63.6547 38.3834C62.785 38.9865 61.8747 39.5287 60.9303 40.0062C60.8455 40.0497 60.7786 40.1216 60.7413 40.2093C60.704 40.297 60.6985 40.3949 60.7259 40.4862C61.4595 42.9696 61.8953 45.5313 62.0244 48.1175C62.0294 48.2212 62.074 48.3191 62.149 48.3909C62.224 48.4628 62.3236 48.5031 62.4275 48.5037L67.7356 48.4972C67.7808 48.4967 67.8247 48.5125 67.8592 48.5418C67.8936 48.5711 67.9163 48.6118 67.9231 48.6565C68.0325 49.5476 68.0325 50.4486 67.9231 51.3397C67.9167 51.3847 67.8942 51.4259 67.8597 51.4556C67.8252 51.4852 67.7811 51.5014 67.7356 51.5009H62.4228C62.3183 51.502 62.2182 51.5432 62.1432 51.6159C62.0682 51.6887 62.024 51.7874 62.0197 51.8918C61.8737 54.4732 61.4375 57.03 60.7194 59.5137C60.6922 59.6061 60.6978 59.705 60.7352 59.7936C60.7726 59.8823 60.8396 59.9553 60.9247 60.0003C61.3934 60.2431 61.9156 60.514 62.3656 60.7897C62.8156 61.0653 63.2609 61.3597 63.6903 61.6653C63.0406 62.448 62.3187 63.1677 61.534 63.815C61.3053 63.664 61.0334 63.4925 60.799 63.3519C60.6378 63.2581 60.3406 63.0922 60.1756 62.9994C59.8175 62.7987 59.4369 62.9487 59.2578 63.3181C59.0787 63.6875 58.805 64.2172 58.6137 64.5603C58.2613 65.1912 57.8748 65.8024 57.4559 66.3912C55.1478 67.4722 52.7131 68 50 68C47.2868 68 44.8653 67.4722 42.5562 66.3922Z" fill="url(#paint3_linear_380_50)"/>
<defs>
<filter id="filter0_b_380_50" x="-4" y="-4" width="108" height="108" filterUnits="userSpaceOnUse" color-interpolation-filters="sRGB">
<feFlood flood-opacity="0" result="BackgroundImageFix"/>
<feGaussianBlur in="BackgroundImageFix" stdDeviation="2"/>
<feComposite in2="SourceAlpha" operator="in" result="effect1_backgroundBlur_380_50"/>
<feBlend mode="normal" in="SourceGraphic" in2="effect1_backgroundBlur_380_50" result="shape"/>
</filter>
<linearGradient id="paint0_linear_380_50" x1="50" y1="0" x2="50" y2="100" gradientUnits="userSpaceOnUse">
<stop stop-color="#0096BD"/>
<stop offset="1" stop-color="#005B72"/>
</linearGradient>
<linearGradient id="paint1_linear_380_50" x1="50" y1="0" x2="50" y2="100" gradientUnits="userSpaceOnUse">
<stop stop-color="#D7D7D7"/>
<stop offset="1" stop-color="#526F76"/>
</linearGradient>
<linearGradient id="paint2_linear_380_50" x1="50.0066" y1="32.5554" x2="50.0066" y2="67.4452" gradientUnits="userSpaceOnUse">
<stop stop-color="#00A5CF"/>
<stop offset="1" stop-color="#75C4D9"/>
</linearGradient>
<linearGradient id="paint3_linear_380_50" x1="50" y1="28.9269" x2="50" y2="71.0731" gradientUnits="userSpaceOnUse">
<stop stop-color="#00A5CF"/>
<stop offset="1" stop-color="#75C4D9"/>
</linearGradient>
</defs>
</svg>
