<svg width="100" height="100" viewBox="0 0 100 100" fill="none" xmlns="http://www.w3.org/2000/svg">
<g filter="url(#filter0_b_380_55)">
<circle cx="50" cy="50" r="50" fill="url(#paint0_linear_380_55)" fill-opacity="0.2"/>
<circle cx="50" cy="50" r="49.5" stroke="url(#paint1_linear_380_55)" stroke-opacity="0.4"/>
</g>
<path d="M69.5 49.4309C69.4874 49.197 69.3923 48.9751 69.2317 48.8045C69.0711 48.6339 68.8553 48.5257 68.6225 48.4991L66.2188 48.11C66.1106 48.0923 66.0111 48.0401 65.9351 47.9612C65.8591 47.8823 65.8106 47.7809 65.7969 47.6722C65.751 47.3769 65.7031 47.0703 65.6375 46.7797C65.6164 46.674 65.6288 46.5643 65.673 46.466C65.7172 46.3677 65.791 46.2856 65.8841 46.2313L68.0197 45.0453C68.2318 44.9372 68.3967 44.7549 68.4831 44.5332C68.5695 44.3114 68.5714 44.0656 68.4885 43.8425L68.1181 42.8206C68.0369 42.5968 67.876 42.4108 67.6662 42.2981C67.4564 42.1855 67.2124 42.1543 66.981 42.2103L64.5856 42.6791C64.4785 42.6982 64.3681 42.683 64.2701 42.6357C64.1722 42.5884 64.0916 42.5114 64.04 42.4156C63.9003 42.1541 63.7485 41.8878 63.59 41.6263C63.5325 41.5331 63.5055 41.4242 63.5129 41.3149C63.5203 41.2057 63.5617 41.1015 63.6313 41.0169L65.225 39.1756C65.3869 39.0018 65.4799 38.775 65.4866 38.5375C65.4934 38.3001 65.4134 38.0683 65.2616 37.8856L64.566 37.0503C64.4146 36.867 64.2006 36.7463 63.9655 36.7117C63.7303 36.677 63.4906 36.7309 63.2928 36.8628L61.1956 38.1219C61.1027 38.1776 60.9942 38.2019 60.8864 38.1913C60.7785 38.1806 60.6769 38.1356 60.5966 38.0628C60.365 37.8594 60.1278 37.6634 59.9056 37.4825C59.8204 37.4152 59.7588 37.3225 59.7298 37.2178C59.7008 37.1131 59.7059 37.0019 59.7444 36.9003L60.6125 34.6128C60.7071 34.3946 60.7181 34.1492 60.6436 33.9233C60.5691 33.6974 60.4143 33.5067 60.2085 33.3875L59.2625 32.8353C59.0565 32.7165 58.814 32.6779 58.5813 32.7269C58.3487 32.7758 58.1422 32.9089 58.0016 33.1006L56.4688 35.0263C56.4136 35.1099 56.3311 35.1718 56.2353 35.2013C56.1394 35.2307 56.0364 35.2258 55.9438 35.1875C55.8866 35.1641 55.4028 34.9663 55.0269 34.8406C54.9238 34.807 54.8341 34.7413 54.771 34.6531C54.7079 34.5649 54.6747 34.4588 54.6763 34.3503L54.7128 31.9063C54.7259 31.6676 54.6515 31.4324 54.5036 31.2446C54.3557 31.0569 54.1445 30.9295 53.9094 30.8863L52.836 30.6988C52.6021 30.6583 52.3615 30.7042 52.1589 30.8279C51.9563 30.9515 51.8054 31.1445 51.7344 31.3709L50.9375 33.6969C50.9013 33.8001 50.833 33.8891 50.7426 33.9506C50.6521 34.0122 50.5443 34.0432 50.435 34.0391H49.521C49.4125 34.0413 49.306 34.0092 49.2168 33.9475C49.1276 33.8857 49.0602 33.7973 49.0241 33.695L48.231 31.3822C48.1612 31.1541 48.0106 30.9592 47.8075 30.8341C47.6044 30.709 47.3626 30.6622 47.1275 30.7025L46.0522 30.89C45.8186 30.9329 45.6086 31.059 45.461 31.2451C45.3134 31.4311 45.2383 31.6644 45.2497 31.9016L45.2872 34.3541C45.288 34.4641 45.2531 34.5715 45.1879 34.6602C45.1227 34.7489 45.0306 34.8141 44.9253 34.8463C44.7106 34.9297 44.2447 35.1078 44.0328 35.1866C43.8453 35.2541 43.641 35.18 43.476 34.9897L41.9516 33.1147C41.8117 32.9218 41.6055 32.7874 41.3726 32.7374C41.1396 32.6874 40.8964 32.7253 40.6897 32.8438L39.7466 33.3903C39.5385 33.5097 39.382 33.702 39.3072 33.93C39.2324 34.1579 39.2447 34.4055 39.3416 34.625L40.2088 36.9069C40.2466 37.0087 40.2516 37.1198 40.223 37.2245C40.1944 37.3293 40.1337 37.4225 40.0494 37.4909C39.8216 37.6784 39.5881 37.8659 39.3556 38.0741C39.2758 38.1463 39.175 38.1911 39.0678 38.2019C38.9607 38.2127 38.853 38.1889 38.7603 38.1341L36.6875 36.8506C36.4885 36.7212 36.249 36.6688 36.0141 36.7033C35.7792 36.7378 35.565 36.8569 35.4116 37.0381L34.7188 37.8716C34.5649 38.053 34.4833 38.2849 34.4897 38.5227C34.4961 38.7606 34.59 38.9877 34.7535 39.1606L36.3547 41C36.4258 41.0829 36.4682 41.1865 36.4758 41.2954C36.4834 41.4043 36.4558 41.5127 36.3969 41.6047C36.2366 41.8597 36.0838 42.1278 35.945 42.3959C35.8931 42.4924 35.812 42.5699 35.7133 42.6174C35.6146 42.6649 35.5034 42.6799 35.3956 42.6603L33.0041 42.1981C32.7725 42.1423 32.5285 42.1736 32.3186 42.2862C32.1087 42.3987 31.9475 42.5846 31.866 42.8084L31.491 43.8284C31.4081 44.0518 31.41 44.2978 31.4964 44.5199C31.5828 44.7419 31.7476 44.9245 31.9597 45.0331L34.0953 46.2191C34.1914 46.2721 34.2676 46.3549 34.3124 46.455C34.3572 46.5551 34.3682 46.6671 34.3438 46.7741L34.3213 46.8931C34.2725 47.1547 34.2275 47.4022 34.1844 47.6656C34.1695 47.773 34.121 47.8728 34.0459 47.951C33.9708 48.0291 33.8729 48.0815 33.7663 48.1006L31.3578 48.4897C31.1223 48.5186 30.9053 48.6323 30.7475 48.8094C30.5896 48.9866 30.5017 49.2152 30.5 49.4525V50.5381C30.4986 50.7763 30.5857 51.0066 30.7444 51.1843C30.903 51.362 31.1219 51.4745 31.3588 51.5L33.7663 51.8881C33.8744 51.9057 33.974 51.9579 34.0501 52.0368C34.1261 52.1157 34.1746 52.2172 34.1881 52.3259C34.2341 52.6222 34.2819 52.9278 34.3475 53.2184C34.3687 53.3241 34.3563 53.4338 34.3121 53.5321C34.2679 53.6305 34.1941 53.7125 34.101 53.7669L31.9663 54.9547C31.7542 55.0628 31.5893 55.2451 31.5028 55.4668C31.4164 55.6886 31.4145 55.9344 31.4975 56.1575L31.8725 57.1794C31.9539 57.4031 32.1149 57.589 32.3246 57.7016C32.5344 57.8141 32.7783 57.8455 33.0097 57.7897L35.405 57.3256C35.5121 57.3062 35.6227 57.3212 35.7207 57.3686C35.8187 57.4159 35.8992 57.4931 35.9506 57.5891C36.0913 57.8516 36.2422 58.1169 36.4006 58.3784C36.4585 58.4715 36.4856 58.5804 36.4782 58.6898C36.4708 58.7991 36.4292 58.9034 36.3594 58.9878L34.7656 60.8281C34.6018 61.0006 34.5067 61.227 34.4981 61.4647C34.4894 61.7025 34.5679 61.9351 34.7188 62.1191L35.4135 62.9544C35.5647 63.1379 35.7787 63.2587 36.0139 63.2933C36.2492 63.328 36.4889 63.274 36.6866 63.1419L38.7838 61.8828C38.8767 61.8271 38.9852 61.8028 39.0931 61.8134C39.2009 61.824 39.3025 61.8691 39.3828 61.9419C39.6153 62.1453 39.8516 62.3413 40.0738 62.5222C40.159 62.5895 40.2206 62.6822 40.2497 62.7869C40.2789 62.8915 40.2741 63.0027 40.236 63.1044L39.3669 65.3919C39.2723 65.6101 39.2613 65.8555 39.3358 66.0814C39.4103 66.3073 39.5651 66.498 39.771 66.6172L40.7188 67.1647C40.9246 67.2836 41.1671 67.3223 41.3998 67.2735C41.6324 67.2248 41.8389 67.0919 41.9797 66.9003L43.5313 64.9925C43.6625 64.8303 43.8688 64.7581 44.0216 64.82C44.3478 64.955 44.5663 65.0309 44.9535 65.1603C45.0566 65.194 45.1463 65.2597 45.2095 65.3479C45.2727 65.4361 45.3062 65.5421 45.305 65.6506L45.2675 68.0928C45.2549 68.3314 45.3294 68.5664 45.4772 68.7541C45.625 68.9417 45.8361 69.0692 46.071 69.1128L47.1444 69.3003C47.3783 69.3411 47.6191 69.2954 47.8218 69.1717C48.0245 69.048 48.1753 68.8548 48.246 68.6281L49.0428 66.3059C49.0789 66.2026 49.1472 66.1136 49.2376 66.052C49.3281 65.9904 49.436 65.9594 49.5453 65.9638H50.4594C50.5679 65.9614 50.6744 65.9934 50.7636 66.0552C50.8529 66.117 50.9203 66.2054 50.9563 66.3078L51.7503 68.6206C51.8118 68.8214 51.9361 68.9972 52.1048 69.1222C52.2735 69.2472 52.4778 69.3149 52.6878 69.3153C52.7438 69.3154 52.7997 69.3104 52.8547 69.3003L53.93 69.1128C54.1636 69.07 54.3737 68.9438 54.5213 68.7578C54.6688 68.5717 54.7439 68.3384 54.7325 68.1012L54.695 65.6488C54.6943 65.5407 54.728 65.4352 54.7912 65.3476C54.8544 65.2599 54.9438 65.1947 55.0466 65.1613C55.4066 65.0403 55.6597 64.9428 55.8819 64.8566L55.9381 64.835C56.2288 64.7347 56.3694 64.8566 56.451 64.9578L58.0213 66.8919C58.162 67.0832 58.3683 67.2159 58.6008 67.2647C58.8332 67.3135 59.0755 67.2749 59.2813 67.1563L60.2253 66.6097C60.4318 66.4904 60.5872 66.2993 60.6617 66.0727C60.7362 65.8462 60.7247 65.6002 60.6294 65.3816L59.7631 63.0997C59.7249 62.998 59.7197 62.8869 59.7481 62.7821C59.7765 62.6773 59.8372 62.584 59.9216 62.5156C60.1494 62.3281 60.3828 62.1406 60.6153 61.9325C60.6957 61.8601 60.7971 61.8153 60.9048 61.8049C61.0125 61.7944 61.1207 61.8188 61.2135 61.8744L63.3125 63.1306C63.5115 63.2603 63.751 63.3128 63.986 63.2783C64.2209 63.2437 64.4352 63.1246 64.5885 62.9431L65.2822 62.1088C65.4361 61.9273 65.5176 61.6954 65.5112 61.4576C65.5048 61.2197 65.4109 60.9926 65.2475 60.8197L63.6481 58.9756C63.5771 58.8927 63.5346 58.7892 63.527 58.6803C63.5194 58.5714 63.5471 58.4629 63.606 58.3709C63.7663 58.1169 63.9191 57.8488 64.0578 57.5797C64.11 57.4834 64.1911 57.4061 64.2897 57.3586C64.3884 57.3111 64.4995 57.296 64.6072 57.3153L66.996 57.7813C67.2275 57.8371 67.4715 57.8058 67.6814 57.6932C67.8914 57.5806 68.0525 57.3947 68.1341 57.1709L68.5044 56.1509C68.5872 55.9277 68.5853 55.6818 68.4989 55.46C68.4125 55.2381 68.2476 55.0556 68.0356 54.9472L65.8981 53.7594C65.8034 53.7058 65.7285 53.6232 65.6844 53.5238C65.6404 53.4243 65.6295 53.3133 65.6535 53.2072L65.676 53.0881C65.7247 52.8266 65.7697 52.5791 65.8128 52.3156C65.8277 52.2083 65.8762 52.1084 65.9513 52.0303C66.0264 51.9521 66.1243 51.8998 66.231 51.8806L68.6394 51.4925C68.8755 51.464 69.0931 51.3504 69.2516 51.173C69.41 50.9956 69.4983 50.7666 69.5 50.5288V49.4309ZM43.0203 58.2434C42.9035 58.4466 42.7401 58.6191 42.5437 58.7468C42.3472 58.8746 42.1232 58.9539 41.8901 58.9782C41.6571 59.0026 41.4215 58.9713 41.2029 58.8869C40.9843 58.8025 40.7888 58.6674 40.6325 58.4928C38.5205 56.1575 37.3543 53.1191 37.3616 49.9704C37.3689 46.8217 38.5491 43.7886 40.6719 41.4631C40.829 41.2886 41.0253 41.1538 41.2447 41.07C41.4641 40.9862 41.7002 40.9558 41.9337 40.9811C42.1671 41.0065 42.3912 41.087 42.5875 41.2159C42.7837 41.3449 42.9466 41.5186 43.0625 41.7228L47.3422 49.2556C47.4707 49.4803 47.5383 49.7346 47.5383 49.9934C47.5383 50.2523 47.4707 50.5066 47.3422 50.7312L43.0203 58.2434ZM50 62.6666C49.1079 62.6668 48.2182 62.5725 47.346 62.3853C47.1187 62.3345 46.9066 62.231 46.7269 62.0829C46.5472 61.9349 46.4048 61.7466 46.3114 61.5334C46.218 61.3201 46.1762 61.0878 46.1893 60.8553C46.2024 60.6229 46.2701 60.3967 46.3869 60.1953L50.6994 52.6953C50.8291 52.4693 51.0162 52.2816 51.2417 52.151C51.4672 52.0205 51.7232 51.9518 51.9838 51.9519H60.6219C60.8546 51.9515 61.0841 52.006 61.2918 52.1108C61.4995 52.2157 61.6796 52.368 61.8174 52.5555C61.9553 52.7429 62.0471 52.9602 62.0853 53.1897C62.1235 53.4193 62.1072 53.6546 62.0375 53.8766C60.3978 58.9691 55.625 62.6666 50 62.6666ZM50.7041 47.3009L46.4375 39.7878C46.3219 39.5861 46.2554 39.3599 46.2433 39.1277C46.2312 38.8955 46.274 38.6637 46.3681 38.451C46.4621 38.2384 46.605 38.0509 46.7849 37.9036C46.9649 37.7564 47.177 37.6535 47.4041 37.6034C48.2577 37.4236 49.1277 37.3331 50 37.3334C55.625 37.3334 60.3978 41.0309 62.0347 46.1263C62.1044 46.3483 62.1207 46.5836 62.0825 46.8131C62.0443 47.0426 61.9525 47.2599 61.8146 47.4473C61.6768 47.6348 61.4967 47.7871 61.289 47.892C61.0813 47.9968 60.8518 48.0513 60.6191 48.0509H51.9941C51.7319 48.0515 51.4743 47.9823 51.2476 47.8505C51.0209 47.7187 50.8333 47.5291 50.7041 47.3009Z" fill="url(#paint2_linear_380_55)"/>
<defs>
<filter id="filter0_b_380_55" x="-4" y="-4" width="108" height="108" filterUnits="userSpaceOnUse" color-interpolation-filters="sRGB">
<feFlood flood-opacity="0" result="BackgroundImageFix"/>
<feGaussianBlur in="BackgroundImageFix" stdDeviation="2"/>
<feComposite in2="SourceAlpha" operator="in" result="effect1_backgroundBlur_380_55"/>
<feBlend mode="normal" in="SourceGraphic" in2="effect1_backgroundBlur_380_55" result="shape"/>
</filter>
<linearGradient id="paint0_linear_380_55" x1="50" y1="0" x2="50" y2="100" gradientUnits="userSpaceOnUse">
<stop stop-color="#0096BD"/>
<stop offset="1" stop-color="#005B72"/>
</linearGradient>
<linearGradient id="paint1_linear_380_55" x1="50" y1="0" x2="50" y2="100" gradientUnits="userSpaceOnUse">
<stop stop-color="#D7D7D7"/>
<stop offset="1" stop-color="#526F76"/>
</linearGradient>
<linearGradient id="paint2_linear_380_55" x1="50" y1="30.6844" x2="50" y2="69.3153" gradientUnits="userSpaceOnUse">
<stop stop-color="#00A5CF"/>
<stop offset="1" stop-color="#75C4D9"/>
</linearGradient>
</defs>
</svg>
