<svg width="100" height="100" viewBox="0 0 100 100" fill="none" xmlns="http://www.w3.org/2000/svg">
<g filter="url(#filter0_b_429_44)">
<circle cx="50" cy="50" r="50" fill="url(#paint0_linear_429_44)" fill-opacity="0.2"/>
<circle cx="50" cy="50" r="49" stroke="url(#paint1_linear_429_44)" stroke-opacity="0.4" stroke-width="2"/>
</g>
<path d="M69.5 49.4308C69.4874 49.1969 69.3923 48.975 69.2317 48.8044C69.0711 48.6338 68.8553 48.5256 68.6225 48.4989L66.2188 48.1099C66.1106 48.0921 66.0111 48.0399 65.9351 47.961C65.8591 47.8821 65.8106 47.7808 65.7969 47.6721C65.751 47.3768 65.7031 47.0702 65.6375 46.7796C65.6164 46.6739 65.6288 46.5642 65.673 46.4659C65.7172 46.3675 65.791 46.2855 65.8841 46.2311L68.0197 45.0452C68.2318 44.9371 68.3967 44.7548 68.4831 44.533C68.5695 44.3113 68.5714 44.0655 68.4884 43.8424L68.1181 42.8205C68.0369 42.5967 67.876 42.4106 67.6662 42.298C67.4564 42.1854 67.2124 42.1541 66.981 42.2102L64.5856 42.6789C64.4785 42.6981 64.3681 42.6829 64.2701 42.6356C64.1722 42.5883 64.0916 42.5113 64.04 42.4155C63.9003 42.1539 63.7485 41.8877 63.59 41.6261C63.5325 41.5329 63.5055 41.4241 63.5129 41.3148C63.5203 41.2056 63.5617 41.1013 63.6313 41.0168L65.225 39.1755C65.3869 39.0017 65.4799 38.7748 65.4866 38.5374C65.4934 38.3 65.4134 38.0682 65.2616 37.8855L64.566 37.0502C64.4146 36.8669 64.2006 36.7462 63.9655 36.7115C63.7303 36.6769 63.4906 36.7308 63.2928 36.8627L61.1956 38.1218C61.1027 38.1775 60.9942 38.2018 60.8864 38.1912C60.7785 38.1805 60.6769 38.1355 60.5966 38.0627C60.365 37.8593 60.1278 37.6633 59.9056 37.4824C59.8204 37.4151 59.7588 37.3224 59.7298 37.2177C59.7008 37.113 59.7059 37.0018 59.7444 36.9002L60.6125 34.6127C60.7071 34.3944 60.7181 34.149 60.6436 33.9231C60.5691 33.6973 60.4143 33.5066 60.2085 33.3874L59.2625 32.8352C59.0565 32.7164 58.814 32.6778 58.5813 32.7268C58.3487 32.7757 58.1422 32.9088 58.0016 33.1005L56.4688 35.0261C56.4136 35.1098 56.3311 35.1717 56.2353 35.2011C56.1394 35.2306 56.0364 35.2257 55.9438 35.1874C55.8866 35.1639 55.4028 34.9661 55.0269 34.8405C54.9238 34.8069 54.8341 34.7412 54.771 34.653C54.7079 34.5647 54.6747 34.4586 54.6763 34.3502L54.7128 31.9061C54.7259 31.6675 54.6515 31.4323 54.5036 31.2445C54.3557 31.0567 54.1445 30.9293 53.9094 30.8861L52.836 30.6986C52.6021 30.6582 52.3615 30.7041 52.1589 30.8277C51.9563 30.9514 51.8054 31.1443 51.7344 31.3708L50.9375 33.6968C50.9013 33.8 50.833 33.8889 50.7426 33.9505C50.6521 34.0121 50.5443 34.0431 50.435 34.0389H49.521C49.4125 34.0412 49.306 34.0091 49.2168 33.9473C49.1276 33.8856 49.0602 33.7972 49.0241 33.6949L48.231 31.3821C48.1612 31.1539 48.0106 30.9591 47.8075 30.834C47.6044 30.7089 47.3626 30.6621 47.1275 30.7024L46.0522 30.8899C45.8186 30.9327 45.6086 31.0589 45.461 31.2449C45.3134 31.431 45.2383 31.6642 45.2497 31.9014L45.2872 34.3539C45.288 34.464 45.2531 34.5714 45.1879 34.6601C45.1227 34.7488 45.0306 34.814 44.9253 34.8461C44.7106 34.9296 44.2447 35.1077 44.0328 35.1864C43.8453 35.2539 43.641 35.1799 43.476 34.9896L41.9516 33.1146C41.8117 32.9217 41.6055 32.7873 41.3726 32.7373C41.1396 32.6873 40.8964 32.7252 40.6897 32.8436L39.7466 33.3902C39.5385 33.5096 39.382 33.7019 39.3072 33.9298C39.2324 34.1578 39.2447 34.4054 39.3416 34.6249L40.2088 36.9068C40.2466 37.0085 40.2516 37.1196 40.223 37.2244C40.1944 37.3292 40.1337 37.4223 40.0494 37.4908C39.8216 37.6783 39.5881 37.8658 39.3556 38.0739C39.2758 38.1462 39.175 38.191 39.0678 38.2017C38.9607 38.2125 38.853 38.1888 38.7603 38.1339L36.6875 36.8505C36.4885 36.721 36.249 36.6686 36.0141 36.7032C35.7792 36.7377 35.565 36.8567 35.4116 37.038L34.7188 37.8714C34.5649 38.0529 34.4833 38.2848 34.4897 38.5226C34.4961 38.7604 34.59 38.9876 34.7535 39.1605L36.3547 40.9999C36.4258 41.0828 36.4682 41.1863 36.4758 41.2952C36.4834 41.4042 36.4558 41.5126 36.3969 41.6046C36.2366 41.8596 36.0838 42.1277 35.945 42.3958C35.8931 42.4923 35.812 42.5698 35.7133 42.6173C35.6146 42.6648 35.5034 42.6798 35.3956 42.6602L33.0041 42.198C32.7725 42.1421 32.5285 42.1735 32.3186 42.286C32.1087 42.3986 31.9475 42.5845 31.866 42.8083L31.491 43.8283C31.4081 44.0517 31.41 44.2977 31.4964 44.5197C31.5828 44.7418 31.7476 44.9244 31.9597 45.033L34.0953 46.2189C34.1914 46.2719 34.2676 46.3548 34.3124 46.4549C34.3572 46.555 34.3682 46.667 34.3438 46.7739L34.3213 46.893C34.2725 47.1546 34.2275 47.4021 34.1844 47.6655C34.1695 47.7728 34.121 47.8727 34.0459 47.9509C33.9708 48.029 33.8729 48.0814 33.7663 48.1005L31.3578 48.4896C31.1223 48.5185 30.9053 48.6321 30.7475 48.8093C30.5896 48.9865 30.5017 49.2151 30.5 49.4524V50.538C30.4986 50.7762 30.5857 51.0064 30.7444 51.1841C30.903 51.3618 31.1219 51.4743 31.3588 51.4999L33.7663 51.888C33.8744 51.9056 33.974 51.9578 34.0501 52.0367C34.1261 52.1156 34.1746 52.2171 34.1881 52.3258C34.2341 52.6221 34.2819 52.9277 34.3475 53.2183C34.3687 53.324 34.3563 53.4337 34.3121 53.532C34.2679 53.6303 34.1941 53.7124 34.101 53.7668L31.9663 54.9546C31.7542 55.0627 31.5893 55.2449 31.5028 55.4667C31.4164 55.6885 31.4145 55.9343 31.4975 56.1574L31.8725 57.1793C31.9539 57.403 32.1149 57.5889 32.3246 57.7015C32.5344 57.814 32.7783 57.8454 33.0097 57.7896L35.405 57.3255C35.5121 57.3061 35.6227 57.3211 35.7207 57.3684C35.8187 57.4158 35.8992 57.493 35.9506 57.5889C36.0913 57.8514 36.2422 58.1168 36.4006 58.3783C36.4585 58.4714 36.4856 58.5803 36.4782 58.6896C36.4708 58.799 36.4292 58.9032 36.3594 58.9877L34.7656 60.828C34.6018 61.0005 34.5067 61.2269 34.4981 61.4646C34.4894 61.7023 34.5679 61.935 34.7188 62.1189L35.4135 62.9543C35.5647 63.1378 35.7787 63.2586 36.0139 63.2932C36.2492 63.3279 36.4889 63.2739 36.6866 63.1418L38.7838 61.8827C38.8767 61.827 38.9852 61.8026 39.0931 61.8133C39.2009 61.8239 39.3025 61.869 39.3828 61.9418C39.6153 62.1452 39.8516 62.3411 40.0738 62.5221C40.159 62.5894 40.2206 62.6821 40.2497 62.7867C40.2789 62.8914 40.2741 63.0025 40.236 63.1043L39.3669 65.3918C39.2723 65.61 39.2613 65.8554 39.3358 66.0813C39.4103 66.3072 39.5651 66.4979 39.771 66.6171L40.7188 67.1646C40.9246 67.2834 41.1671 67.3222 41.3998 67.2734C41.6324 67.2246 41.8389 67.0917 41.9797 66.9002L43.5313 64.9924C43.6625 64.8302 43.8688 64.758 44.0216 64.8199C44.3478 64.9549 44.5663 65.0308 44.9535 65.1602C45.0566 65.1939 45.1463 65.2596 45.2095 65.3478C45.2727 65.436 45.3062 65.542 45.305 65.6505L45.2675 68.0927C45.2549 68.3312 45.3294 68.5663 45.4772 68.7539C45.625 68.9416 45.8361 69.0691 46.071 69.1127L47.1444 69.3002C47.3783 69.341 47.6191 69.2953 47.8218 69.1716C48.0245 69.0479 48.1753 68.8547 48.246 68.628L49.0428 66.3058C49.0789 66.2025 49.1472 66.1135 49.2376 66.0519C49.3281 65.9902 49.436 65.9593 49.5453 65.9636H50.4594C50.5679 65.9613 50.6744 65.9933 50.7636 66.055C50.8529 66.1168 50.9203 66.2053 50.9563 66.3077L51.7503 68.6205C51.8118 68.8213 51.9361 68.9971 52.1048 69.1221C52.2735 69.2471 52.4778 69.3148 52.6878 69.3152C52.7438 69.3153 52.7997 69.3103 52.8547 69.3002L53.93 69.1127C54.1636 69.0698 54.3737 68.9437 54.5213 68.7576C54.6688 68.5716 54.7439 68.3383 54.7325 68.1011L54.695 65.6486C54.6943 65.5406 54.728 65.4351 54.7912 65.3475C54.8544 65.2598 54.9438 65.1946 55.0466 65.1611C55.4066 65.0402 55.6597 64.9427 55.8819 64.8564L55.9381 64.8349C56.2288 64.7346 56.3694 64.8564 56.451 64.9577L58.0213 66.8918C58.162 67.0831 58.3683 67.2158 58.6008 67.2646C58.8332 67.3133 59.0755 67.2747 59.2813 67.1561L60.2253 66.6096C60.4318 66.4903 60.5872 66.2991 60.6617 66.0726C60.7362 65.8461 60.7247 65.6 60.6294 65.3814L59.7631 63.0996C59.7249 62.9979 59.7197 62.8868 59.7481 62.782C59.7765 62.6771 59.8372 62.5839 59.9216 62.5155C60.1494 62.328 60.3828 62.1405 60.6153 61.9324C60.6957 61.8599 60.7971 61.8152 60.9048 61.8047C61.0125 61.7943 61.1207 61.8186 61.2135 61.8743L63.3125 63.1305C63.5115 63.2602 63.751 63.3127 63.986 63.2782C64.2209 63.2436 64.4352 63.1244 64.5885 62.943L65.2822 62.1086C65.4361 61.9272 65.5176 61.6953 65.5112 61.4575C65.5048 61.2196 65.4109 60.9925 65.2475 60.8196L63.6481 58.9755C63.5771 58.8926 63.5346 58.7891 63.527 58.6801C63.5194 58.5712 63.5471 58.4628 63.606 58.3708C63.7663 58.1168 63.9191 57.8486 64.0578 57.5796C64.11 57.4833 64.1911 57.4059 64.2897 57.3585C64.3884 57.311 64.4995 57.2959 64.6072 57.3152L66.996 57.7811C67.2275 57.837 67.4715 57.8057 67.6814 57.6931C67.8914 57.5805 68.0525 57.3946 68.1341 57.1708L68.5044 56.1508C68.5872 55.9276 68.5853 55.6817 68.4989 55.4598C68.4125 55.2379 68.2476 55.0555 68.0356 54.9471L65.8981 53.7593C65.8034 53.7057 65.7285 53.6231 65.6844 53.5236C65.6404 53.4242 65.6295 53.3132 65.6535 53.2071L65.676 53.088C65.7247 52.8264 65.7697 52.5789 65.8128 52.3155C65.8277 52.2082 65.8762 52.1083 65.9513 52.0302C66.0264 51.952 66.1243 51.8996 66.231 51.8805L68.6394 51.4924C68.8755 51.4639 69.0931 51.3503 69.2516 51.1729C69.41 50.9955 69.4983 50.7665 69.5 50.5286V49.4308ZM43.0203 58.2433C42.9035 58.4465 42.7401 58.619 42.5437 58.7467C42.3472 58.8745 42.1232 58.9538 41.8901 58.9781C41.6571 59.0024 41.4215 58.9711 41.2029 58.8867C40.9843 58.8024 40.7888 58.6673 40.6325 58.4927C38.5205 56.1574 37.3543 53.1189 37.3616 49.9702C37.3689 46.8215 38.5491 43.7885 40.6719 41.463C40.829 41.2885 41.0253 41.1537 41.2447 41.0699C41.4641 40.9861 41.7002 40.9556 41.9337 40.981C42.1671 41.0064 42.3912 41.0868 42.5875 41.2158C42.7837 41.3447 42.9466 41.5185 43.0625 41.7227L47.3422 49.2555C47.4707 49.4802 47.5383 49.7345 47.5383 49.9933C47.5383 50.2521 47.4707 50.5065 47.3422 50.7311L43.0203 58.2433ZM50 62.6664C49.1079 62.6667 48.2182 62.5724 47.346 62.3852C47.1187 62.3344 46.9066 62.2308 46.7269 62.0828C46.5472 61.9348 46.4048 61.7465 46.3114 61.5332C46.218 61.32 46.1762 61.0877 46.1893 60.8552C46.2024 60.6227 46.2701 60.3966 46.3869 60.1952L50.6994 52.6952C50.8291 52.4692 51.0162 52.2814 51.2417 52.1509C51.4672 52.0204 51.7232 51.9517 51.9838 51.9518H60.6219C60.8546 51.9514 61.0841 52.0058 61.2918 52.1107C61.4995 52.2156 61.6796 52.3679 61.8174 52.5554C61.9553 52.7428 62.0471 52.9601 62.0853 53.1896C62.1235 53.4191 62.1072 53.6544 62.0375 53.8764C60.3978 58.9689 55.625 62.6664 50 62.6664ZM50.7041 47.3008L46.4375 39.7877C46.3219 39.5859 46.2554 39.3598 46.2433 39.1276C46.2312 38.8954 46.274 38.6636 46.3681 38.4509C46.4621 38.2383 46.605 38.0507 46.7849 37.9035C46.9649 37.7563 47.177 37.6534 47.4041 37.6033C48.2577 37.4234 49.1277 37.3329 50 37.3333C55.625 37.3333 60.3978 41.0308 62.0347 46.1261C62.1044 46.3481 62.1207 46.5834 62.0825 46.813C62.0443 47.0425 61.9525 47.2598 61.8146 47.4472C61.6768 47.6347 61.4967 47.787 61.289 47.8919C61.0813 47.9967 60.8518 48.0512 60.6191 48.0508H51.9941C51.7319 48.0513 51.4743 47.9822 51.2476 47.8504C51.0209 47.7186 50.8333 47.5289 50.7041 47.3008Z" fill="url(#paint2_linear_429_44)"/>
<defs>
<filter id="filter0_b_429_44" x="-4" y="-4" width="108" height="108" filterUnits="userSpaceOnUse" color-interpolation-filters="sRGB">
<feFlood flood-opacity="0" result="BackgroundImageFix"/>
<feGaussianBlur in="BackgroundImageFix" stdDeviation="2"/>
<feComposite in2="SourceAlpha" operator="in" result="effect1_backgroundBlur_429_44"/>
<feBlend mode="normal" in="SourceGraphic" in2="effect1_backgroundBlur_429_44" result="shape"/>
</filter>
<linearGradient id="paint0_linear_429_44" x1="50" y1="0" x2="50" y2="100" gradientUnits="userSpaceOnUse">
<stop stop-color="#0096BD"/>
<stop offset="1" stop-color="#005B72"/>
</linearGradient>
<linearGradient id="paint1_linear_429_44" x1="25.3577" y1="75.5" x2="93.3208" y2="19.3258" gradientUnits="userSpaceOnUse">
<stop stop-color="#0057BB"/>
<stop offset="1" stop-color="#00DA5A"/>
</linearGradient>
<linearGradient id="paint2_linear_429_44" x1="50" y1="30.6843" x2="50" y2="69.3152" gradientUnits="userSpaceOnUse">
<stop stop-color="#00A5CF"/>
<stop offset="1" stop-color="#75C4D9"/>
</linearGradient>
</defs>
</svg>
